<?xml version="1.0" encoding="UTF-8"?>
<svg version="1.1" xmlns="http://www.w3.org/2000/svg" width="1080" height="1080">
<path d="M0 0 C356.4 0 712.8 0 1080 0 C1080 356.4 1080 712.8 1080 1080 C723.6 1080 367.2 1080 0 1080 C0 723.6 0 367.2 0 0 Z " fill="#DCD9D0" transform="translate(0,0)"/>
<path d="M0 0 C0.82435547 -0.00773437 1.64871094 -0.01546875 2.49804688 -0.0234375 C9.4940878 -0.00106806 14.61372319 1.52481506 20.625 5.1875 C21.46417969 5.69152344 22.30335938 6.19554687 23.16796875 6.71484375 C25.20077007 8.08987115 26.73799901 9.50066027 28.4375 11.25 C29.13875 11.58 29.84 11.91 30.5625 12.25 C32.4375 13.25 32.4375 13.25 33.4375 16.25 C34.118125 16.8996875 34.118125 16.8996875 34.8125 17.5625 C36.4375 19.25 36.4375 19.25 37.875 22.1875 C39.22810629 25.2361441 39.22810629 25.2361441 41.30078125 27.08984375 C43.68789296 29.5031395 45.37814914 32.00632834 47.1875 34.875 C47.80109375 35.83664062 48.4146875 36.79828125 49.046875 37.7890625 C50.4375 40.25 50.4375 40.25 50.4375 42.25 C51.0975 42.25 51.7575 42.25 52.4375 42.25 C52.994375 43.4875 52.994375 43.4875 53.5625 44.75 C55.07501339 47.57335834 56.54204416 49.7606674 58.5 52.25 C60.97752212 55.44680273 62.4445949 58.2783796 63.4375 62.25 C64.0975 62.25 64.7575 62.25 65.4375 62.25 C66.91796875 64.26953125 66.91796875 64.26953125 68.625 67.0625 C69.24503906 68.06539063 69.86507812 69.06828125 70.50390625 70.1015625 C71.14199219 71.14054687 71.78007812 72.17953125 72.4375 73.25 C73.64233307 75.14805973 74.85054218 77.04398166 76.0625 78.9375 C76.63355469 79.83726562 77.20460938 80.73703125 77.79296875 81.6640625 C78.8520298 83.3293794 79.91670856 84.99114372 80.98828125 86.6484375 C81.44589844 87.36257813 81.90351563 88.07671875 82.375 88.8125 C82.77589844 89.43253906 83.17679687 90.05257812 83.58984375 90.69140625 C84.4375 92.25 84.4375 92.25 84.4375 94.25 C85.0975 94.25 85.7575 94.25 86.4375 94.25 C87.56323242 95.63598633 87.56323242 95.63598633 88.79296875 97.58203125 C89.24663818 98.29230469 89.70030762 99.00257813 90.16772461 99.734375 C90.64862549 100.50265625 91.12952637 101.2709375 91.625 102.0625 C92.12330322 102.84496094 92.62160645 103.62742187 93.13500977 104.43359375 C95.20554441 107.68896977 97.25481461 110.95716606 99.296875 114.23046875 C103.38988145 120.76509538 107.77593693 127.05828387 112.26342773 133.32617188 C114.81032067 136.89256705 117.245268 140.44967305 119.4375 144.25 C119.994375 145.136875 120.55125 146.02375 121.125 146.9375 C122.4375 149.25 122.4375 149.25 122.4375 151.25 C123.0975 151.25 123.7575 151.25 124.4375 151.25 C124.7675 152.57 125.0975 153.89 125.4375 155.25 C126.0975 155.25 126.7575 155.25 127.4375 155.25 C127.829375 156.075 128.22125 156.9 128.625 157.75 C130.3887815 161.1559229 132.34595931 164.31420356 134.44921875 167.515625 C135.4375 169.25 135.4375 169.25 135.4375 171.25 C136.0975 171.25 136.7575 171.25 137.4375 171.25 C140.88210784 175.62558293 143.59557719 180.20809568 146.234375 185.1015625 C147.32143644 187.04274364 148.48410687 188.85997823 149.75 190.6875 C151.4375 193.25 151.4375 193.25 151.4375 195.25 C152.0975 195.25 152.7575 195.25 153.4375 195.25 C154.9453125 197.3671875 154.9453125 197.3671875 156.5625 200.125 C157.10132813 201.02992188 157.64015625 201.93484375 158.1953125 202.8671875 C159.4375 205.25 159.4375 205.25 159.4375 207.25 C160.0975 207.25 160.7575 207.25 161.4375 207.25 C162.571647 209.01855113 163.61878614 210.84315834 164.625 212.6875 C166.89631453 216.71435139 169.20948155 220.41215295 172.125 224 C174.78931679 227.28599071 176.64297961 230.46717099 178.41796875 234.2890625 C179.91984067 237.17772037 181.88269031 239.63412003 183.875 242.19921875 C186.58423758 245.75509307 188.98352826 249.51569517 191.4375 253.25 C192.68625222 255.12583125 193.93634068 257.00077339 195.1875 258.875 C195.85394531 259.87789062 196.52039063 260.88078125 197.20703125 261.9140625 C198.83458035 264.35723817 200.48209307 266.78602479 202.13671875 269.2109375 C202.59143555 269.8817334 203.04615234 270.5525293 203.51464844 271.24365234 C204.40516356 272.55705028 205.30018292 273.86740821 206.20019531 275.17431641 C208.23395765 278.18470334 209.69698822 280.6994028 210.4375 284.25 C211.0975 284.25 211.7575 284.25 212.4375 284.25 C213.953125 286.33984375 213.953125 286.33984375 215.6875 289.1875 C217.86298336 292.70864317 220.04827902 296.2018516 222.375 299.625 C224.88433212 303.37208894 227.30553822 307.17098163 229.6875 311 C230.35265625 312.06734375 231.0178125 313.1346875 231.703125 314.234375 C233.4375 317.25 233.4375 317.25 234.484375 320.078125 C234.79890625 320.79484375 235.1134375 321.5115625 235.4375 322.25 C236.4275 322.58 237.4175 322.91 238.4375 323.25 C240.02715571 325.46701147 241.16077486 327.82862473 242.4375 330.25 C244.53486559 327.71869671 246.41525922 325.28849366 248.0625 322.4375 C248.743125 321.3546875 248.743125 321.3546875 249.4375 320.25 C250.0975 320.25 250.7575 320.25 251.4375 320.25 C251.81068359 318.96222656 251.81068359 318.96222656 252.19140625 317.6484375 C253.53314796 313.98914194 255.23654731 311.13101657 257.375 307.875 C257.7654248 307.27776123 258.15584961 306.68052246 258.55810547 306.06518555 C262.11454892 300.65785434 265.79454983 295.33465526 269.48120117 290.015625 C272.71093768 285.34596193 275.79389144 280.60342721 278.8046875 275.7890625 C281.10003916 272.21973575 283.56640112 268.78048634 286.0546875 265.34375 C287.59571135 263.20694818 287.59571135 263.20694818 288.4375 260.25 C289.0975 260.25 289.7575 260.25 290.4375 260.25 C290.68806152 259.54818604 290.93862305 258.84637207 291.19677734 258.12329102 C292.59149844 254.89336724 294.32369062 252.19568555 296.2890625 249.27734375 C296.66678802 248.71358536 297.04451355 248.14982697 297.4336853 247.56898499 C298.63895629 245.77219912 299.8505487 243.97978487 301.0625 242.1875 C301.85329575 241.01135749 302.64366389 239.83492736 303.43359375 238.65820312 C304.99890826 236.32756838 306.56623837 233.99831066 308.13525391 231.67016602 C310.36817339 228.35518108 312.59260178 225.03465957 314.8125 221.7109375 C315.43125 220.78458496 316.05 219.85823242 316.6875 218.90380859 C318.42640488 216.26682533 320.1264388 213.60851924 321.8125 210.9375 C327.64418577 201.7295751 333.56035247 192.56755084 340.21484375 183.9296875 C341.78800473 181.76847592 343.05501769 179.45796372 344.33984375 177.1171875 C345.59373911 174.98422671 346.99432622 173.01001072 348.4375 171 C351.96986489 166.0364183 355.20638728 160.91178996 358.4375 155.75 C362.05273229 149.98160236 365.71016522 144.28870106 369.671875 138.75 C375.76843491 130.11770279 381.48745137 121.21519554 387.1809082 112.31396484 C390.85689156 106.57445689 394.64122052 100.91032089 398.4375 95.25 C399.72977151 93.31290336 401.02143047 91.37539796 402.3125 89.4375 C403.6875 87.375 405.0625 85.3125 406.4375 83.25 C407.02966309 82.36175537 407.02966309 82.36175537 407.63378906 81.45556641 C408.47353265 80.19595102 409.31329534 78.93634837 410.15307617 77.67675781 C411.01015998 76.39105064 411.8670933 75.10524315 412.72387695 73.81933594 C414.65751691 70.91757726 416.59341061 68.0174406 418.53515625 65.12109375 C422.44970755 59.27650523 426.2878294 53.38926106 430.08007812 47.46508789 C433.15114792 42.67546118 436.28780874 37.93239895 439.45703125 33.20703125 C440.83682648 31.14686362 442.20862616 29.08132799 443.57421875 27.01171875 C444.27160156 25.95597656 444.96898437 24.90023438 445.6875 23.8125 C446.62335938 22.39130859 446.62335938 22.39130859 447.578125 20.94140625 C452.72552253 13.49065646 458.84158365 6.64838554 467.4375 3.25 C468.4275 3.25 469.4175 3.25 470.4375 3.25 C470.4375 2.59 470.4375 1.93 470.4375 1.25 C475.29847225 0.29009237 479.94311512 0.06686064 484.875 0.0625 C485.60009766 0.05025391 486.32519531 0.03800781 487.07226562 0.02539062 C498.82825168 -0.00629667 509.38154056 5.81111051 517.96875 13.640625 C521.31703921 17.3094951 524.4375 21.18192913 524.4375 26.25 C525.0975 26.25 525.7575 26.25 526.4375 26.25 C528.0287689 31.123261 528.64942221 35.05790596 528.4375 40.25 C529.0975 40.25 529.7575 40.25 530.4375 40.25 C530.4375 203.93 530.4375 367.61 530.4375 536.25 C523.1775 536.25 515.9175 536.25 508.4375 536.25 C508.43511165 533.70719865 508.43272329 531.1643973 508.43026257 528.54454136 C508.38812724 484.04827403 508.34218102 439.55201294 508.27851868 395.05577087 C508.27752311 394.3591933 508.27652754 393.66261573 508.27550181 392.94492975 C508.25384325 377.80640688 508.23152056 362.66788505 508.20851372 347.52936417 C508.19723521 340.10543242 508.18610345 332.68150045 508.17504883 325.25756836 C508.17394626 324.51879806 508.1728437 323.78002776 508.17170772 323.01887048 C508.13603947 299.07338803 508.11006204 275.12790699 508.08911031 251.18240753 C508.06752843 226.5752067 508.03616937 201.96803724 507.99250887 177.36086522 C507.98634663 173.88523984 507.98029615 170.40961427 507.97431374 166.93398857 C507.97313285 166.24993589 507.97195197 165.56588321 507.97073531 164.86110166 C507.95201413 153.84993513 507.94359907 142.83878368 507.93903876 131.82760318 C507.93423409 120.75753136 507.9183287 109.68750926 507.89183434 98.61746574 C507.8778043 92.61951053 507.86865419 86.62165085 507.87249184 80.62367821 C507.87589848 75.13292051 507.86555766 69.64236695 507.84426448 64.15165108 C507.83899002 62.16497005 507.83876855 60.17826785 507.84410437 58.19158698 C507.85062097 55.49015793 507.83870257 52.78940198 507.82226086 50.08802891 C507.8316759 48.9322671 507.8316759 48.9322671 507.84128115 47.75315657 C507.77011996 41.40095973 506.6181631 35.04693745 502.640625 29.9453125 C495.34630798 24.08068162 489.70555489 21.92481601 480.3046875 21.8515625 C477.02168083 22.30778414 475.17660382 23.43315336 472.4375 25.25 C471.4475 25.58 470.4575 25.91 469.4375 26.25 C468.34557722 28.07868285 468.34557722 28.07868285 467.4375 30.25 C466.62429742 31.67831735 465.79075892 33.09524447 464.9375 34.5 C464.5146875 35.20640625 464.091875 35.9128125 463.65625 36.640625 C463.2540625 37.17171875 462.851875 37.7028125 462.4375 38.25 C461.7775 38.25 461.1175 38.25 460.4375 38.25 C460.17710937 38.96800781 459.91671875 39.68601562 459.6484375 40.42578125 C458.381719 43.38009568 456.87649389 45.78539501 455.0625 48.4375 C453.99708984 50.00951172 453.99708984 50.00951172 452.91015625 51.61328125 C452.32065186 52.47880615 452.32065186 52.47880615 451.71923828 53.36181641 C449.29288793 56.9361771 446.89748309 60.53124075 444.5 64.125 C443.98622803 64.89416748 443.47245605 65.66333496 442.94311523 66.45581055 C439.41103924 71.75532018 435.95129886 77.09653779 432.53076172 82.46850586 C429.78574443 86.7601984 426.88239161 90.92019843 423.9296875 95.0703125 C422.59086301 97.0259776 421.39713126 98.99054973 420.25 101.0625 C418.4375 104.25 418.4375 104.25 416.5 106.625 C414.7390337 108.86622983 413.51197632 110.87665671 412.1875 113.375 C409.68698771 118.01552128 406.65230993 122.10529202 403.5 126.3203125 C400.64279861 130.3788372 398.26081376 134.65942343 395.8828125 139.01171875 C395.40585937 139.75035156 394.92890625 140.48898437 394.4375 141.25 C393.7775 141.25 393.1175 141.25 392.4375 141.25 C392.18613281 141.95511719 391.93476562 142.66023437 391.67578125 143.38671875 C390.29904657 146.57014627 388.58532863 149.20259417 386.625 152.0625 C384.34130232 155.42859657 382.06659648 158.78386 379.9375 162.25 C375.92419352 168.74645598 371.60639279 175.05268388 367.3203125 181.37109375 C363.39140901 187.19031873 359.70359351 193.03186044 356.4375 199.25 C355.7775 199.25 355.1175 199.25 354.4375 199.25 C354.19 199.930625 353.9425 200.61125 353.6875 201.3125 C352.19552092 204.81865083 350.36914489 207.96620368 348.4375 211.25 C347.7775 211.25 347.1175 211.25 346.4375 211.25 C346.18355469 211.95898438 345.92960937 212.66796875 345.66796875 213.3984375 C344.32345636 216.51429161 342.66908392 219.07743562 340.75 221.875 C335.09067285 230.22583356 329.68009274 238.67469279 324.69921875 247.44921875 C324.07466797 248.34060547 324.07466797 248.34060547 323.4375 249.25 C322.7775 249.25 322.1175 249.25 321.4375 249.25 C321.19257812 249.93964844 320.94765625 250.62929688 320.6953125 251.33984375 C319.22804094 254.73461801 317.33921485 257.73538762 315.3125 260.8125 C314.91506592 261.4223877 314.51763184 262.03227539 314.1081543 262.66064453 C312.88937346 264.52694051 311.66392439 266.38872064 310.4375 268.25 C309.72464844 269.33925781 309.01179688 270.42851563 308.27734375 271.55078125 C305.35675839 275.97949162 302.41364065 280.34992036 299.1875 284.5625 C297.05450016 287.35312714 295.25079969 290.19740965 293.5546875 293.28125 C289.53070286 300.37246769 284.8914477 307.07894689 280.18359375 313.7265625 C277.7674908 317.21829071 275.51585368 320.80563509 273.25390625 324.3984375 C271.35604292 327.37787886 269.40485229 330.31602954 267.4375 333.25 C264.74640901 337.27612441 262.06964615 341.31003235 259.4375 345.375 C258.86 346.26445313 258.2825 347.15390625 257.6875 348.0703125 C256.2716741 350.12037969 256.2716741 350.12037969 256.4375 352.25 C257.0975 352.58 257.7575 352.91 258.4375 353.25 C259.5078125 355.02734375 259.5078125 355.02734375 260.5625 357.1875 C261.09230469 358.25291016 261.09230469 358.25291016 261.6328125 359.33984375 C262.4375 361.25 262.4375 361.25 262.4375 363.25 C263.0975 363.25 263.7575 363.25 264.4375 363.25 C265.8125 365.12890625 265.8125 365.12890625 267.4375 367.8125 C269.56985625 371.29444881 271.72924067 374.70449721 274.0859375 378.0390625 C274.53710938 378.68544678 274.98828125 379.33183105 275.453125 379.99780273 C276.34001002 381.26330228 277.23801331 382.52110333 278.1484375 383.76977539 C281.27826665 388.28785493 282.11068008 391.76063572 282.4375 397.25 C283.0975 397.25 283.7575 397.25 284.4375 397.25 C285.21895476 400.7071807 285.56575408 403.90342298 285.5703125 407.4453125 C285.57160156 408.40824219 285.57289063 409.37117188 285.57421875 410.36328125 C285.57035156 411.35714844 285.56648438 412.35101562 285.5625 413.375 C285.56636719 414.37660156 285.57023437 415.37820313 285.57421875 416.41015625 C285.57228516 417.85068359 285.57228516 417.85068359 285.5703125 419.3203125 C285.56918457 420.19445801 285.56805664 421.06860352 285.56689453 421.96923828 C285.4375 424.25 285.4375 424.25 284.4375 427.25 C283.7775 427.25 283.1175 427.25 282.4375 427.25 C282.1075 429.89 281.7775 432.53 281.4375 435.25 C280.7775 435.25 280.1175 435.25 279.4375 435.25 C279.31375 435.83007812 279.19 436.41015625 279.0625 437.0078125 C277.05053145 444.22574966 272.61763069 448.29555168 266.328125 452.0234375 C264.29283036 453.11687898 264.29283036 453.11687898 263.4375 455.25 C250.96730213 459.25471497 234.18076673 459.36981961 222.2578125 453.953125 C217.42061685 451.0320484 213.15071546 447.51642589 209.4375 443.25 C209.4375 442.59 209.4375 441.93 209.4375 441.25 C208.7775 441.25 208.1175 441.25 207.4375 441.25 C203.40274164 432.02769518 200.2593352 424.18992063 200.3125 414 C200.30863281 413.27425781 200.30476562 412.54851562 200.30078125 411.80078125 C200.3267646 397.22412289 205.2999666 386.40317061 213.28515625 374.4765625 C215.06217937 371.81264037 216.73754956 369.12513931 218.375 366.375 C219.055625 365.34375 219.73625 364.3125 220.4375 363.25 C221.0975 363.25 221.7575 363.25 222.4375 363.25 C222.52 362.71375 222.6025 362.1775 222.6875 361.625 C223.4375 359.25 223.4375 359.25 225.5625 356.375 C227.70010721 353.41971214 227.70010721 353.41971214 227.4375 350.1875 C226.29701247 346.83731788 224.71972571 344.93497142 222.4375 342.25 C220.8255587 339.26492352 219.50991149 336.46723446 218.4375 333.25 C217.4475 332.92 216.4575 332.59 215.4375 332.25 C214.44311523 330.66601562 214.44311523 330.66601562 213.55859375 328.65625 C211.56171963 324.39878156 209.15828298 320.61962684 206.5 316.75 C205.61236249 315.44072658 204.7256337 314.1308366 203.83984375 312.8203125 C203.21311768 311.89460449 203.21311768 311.89460449 202.57373047 310.95019531 C201.18514578 308.87239047 199.86426255 306.75810623 198.5625 304.625 C196.68069915 301.63625747 194.65710303 298.9875104 192.4375 296.25 C191.41138051 294.59928604 190.41441857 292.93029994 189.4375 291.25 C188.10458127 289.17032559 186.76934613 287.09234669 185.42578125 285.01953125 C184.4375 283.25 184.4375 283.25 184.4375 281.25 C183.7775 281.25 183.1175 281.25 182.4375 281.25 C181.140625 279.37890625 181.140625 279.37890625 179.6875 276.8125 C177.7358889 273.44667796 175.7509649 270.15442381 173.5625 266.9375 C170.27862297 262.093998 167.27662294 257.08806313 164.26953125 252.0703125 C162.75059913 249.73199909 161.37883653 248.18114578 159.4375 246.25 C158.18919746 244.3380072 156.98624072 242.39614964 155.8125 240.4375 C155.10274352 239.26490933 154.3917624 238.09305922 153.6796875 236.921875 C153.31198242 236.31666016 152.94427734 235.71144531 152.56542969 235.08789062 C146.31501855 224.90323802 139.6615242 214.95509111 132.95703125 205.06640625 C129.20459165 199.50606859 125.66104853 193.82488319 122.11865234 188.12963867 C118.98640503 183.10299207 115.76248835 178.15149145 112.4375 173.25 C111.43628428 171.75081119 110.43631157 170.25079161 109.4375 168.75 C108.93992187 168.00363281 108.44234375 167.25726563 107.9296875 166.48828125 C86.4375 134.25 86.4375 134.25 86.4375 131.25 C85.4475 130.92 84.4575 130.59 83.4375 130.25 C81.859375 127.87890625 81.859375 127.87890625 80.1875 124.8125 C77.37776451 119.81081442 74.33801992 115.14661216 70.9921875 110.4921875 C69.64955835 108.5558329 68.48928077 106.63450969 67.375 104.5625 C65.81175121 101.88984884 64.41661808 100.00678861 62.375 97.75 C59.98012451 95.06393618 58.68407936 92.6501452 57.40625 89.2578125 C55.6035989 85.52167273 52.91571248 82.34551791 50.43359375 79.0390625 C48.16104882 75.86372574 46.31222291 72.59963633 44.54296875 69.125 C43.37671647 67.14690425 42.05803902 65.86649778 40.4375 64.25 C39.317005 62.60808653 38.2375066 60.93786108 37.1875 59.25 C36.57390625 58.27160156 35.9603125 57.29320312 35.328125 56.28515625 C34.70421875 55.28355469 34.0803125 54.28195312 33.4375 53.25 C24.48219702 36.77010502 24.48219702 36.77010502 11.4375 24.25 C11.4375 23.59 11.4375 22.93 11.4375 22.25 C-3.06845735 21.53084621 -3.06845735 21.53084621 -15.65625 28.015625 C-22.0458729 34.66711769 -22.86616491 42.08087546 -22.82421303 50.94936371 C-22.83020712 52.21429474 -22.83020712 52.21429474 -22.83632231 53.50477993 C-22.84727508 56.32530879 -22.84409831 59.14564076 -22.8409729 61.96618652 C-22.84597697 64.01074459 -22.85185309 66.05530069 -22.85852563 68.09985399 C-22.87432611 73.71416679 -22.87775635 79.32842955 -22.87917423 84.9427619 C-22.88286818 90.99858875 -22.89802364 97.05438815 -22.91178894 103.11019897 C-22.93406573 113.60100468 -22.9491458 124.0918033 -22.95915604 134.58262634 C-22.96968371 145.58407109 -22.98432167 156.58549776 -23.00443649 167.58692932 C-23.00630979 168.61338741 -23.00630979 168.61338741 -23.00822094 169.66058202 C-23.01458478 173.13589265 -23.02102194 176.61120314 -23.02748732 180.08651358 C-23.07313717 204.6953616 -23.10959032 229.3042155 -23.140625 253.91308594 C-23.17079386 277.81869364 -23.20513467 301.72428942 -23.24511719 325.62988281 C-23.24696369 326.73539993 -23.24696369 326.73539993 -23.2488475 327.86325072 C-23.26121447 335.26469346 -23.27366618 342.66613605 -23.28617998 350.06757854 C-23.31166959 365.14486438 -23.3365936 380.22215113 -23.36117554 395.29943848 C-23.36230645 395.99265168 -23.36343736 396.68586489 -23.36460253 397.40008456 C-23.44004433 443.68337598 -23.50214926 489.96668671 -23.5625 536.25 C-30.4925 536.25 -37.4225 536.25 -44.5625 536.25 C-44.59662082 489.17114577 -44.6285762 442.09229088 -44.64718628 395.01342773 C-44.64746239 394.31671211 -44.64773851 393.61999648 -44.64802299 392.90216826 C-44.65400872 377.76087861 -44.6595491 362.61958882 -44.66463066 347.47829884 C-44.66712535 340.05307811 -44.66971845 332.6278574 -44.67236328 325.20263672 C-44.6726248 324.46373566 -44.67288632 323.7248346 -44.67315576 322.9635426 C-44.68167936 299.01106012 -44.69670266 275.05858707 -44.71509444 251.1061103 C-44.73395913 226.49305757 -44.74627077 201.88001006 -44.75032998 177.26695023 C-44.75090629 173.79100391 -44.75155757 170.31505762 -44.75225449 166.83911133 C-44.75238933 166.15499122 -44.75252418 165.47087112 -44.75266311 164.7660201 C-44.75502709 153.75092954 -44.7643047 142.73585512 -44.77616407 131.72077114 C-44.7879376 120.64850045 -44.79227421 109.57624203 -44.78950275 98.50396436 C-44.78821913 92.50411523 -44.79021579 86.50431349 -44.80091095 80.50447273 C-44.81062824 75.0132073 -44.81114476 69.52202123 -44.80429779 64.03075218 C-44.80345127 62.04273446 -44.80600118 60.05471183 -44.81226636 58.0667038 C-44.82028356 55.36603238 -44.81597137 52.66564804 -44.80859566 49.96498108 C-44.81384968 49.19184619 -44.81910371 48.41871131 -44.82451695 47.6221481 C-44.77886473 40.23261388 -42.81792083 33.73256777 -40.4375 26.75 C-40.08429688 25.7084375 -39.73109375 24.666875 -39.3671875 23.59375 C-38.96886719 22.43359375 -38.96886719 22.43359375 -38.5625 21.25 C-37.9025 21.25 -37.2425 21.25 -36.5625 21.25 C-36.47871094 20.68023437 -36.39492188 20.11046875 -36.30859375 19.5234375 C-33.92995306 12.2754329 -25.37808738 7.14102891 -19.1171875 3.44140625 C-12.73250986 0.46384252 -6.91368644 -0.06517222 0 0 Z " fill="#574639" transform="translate(302.5625,275.75)"/>
<path d="M0 0 C0.66 0 1.32 0 2 0 C2.83848804 1.45537568 3.67063934 2.91440373 4.5 4.375 C4.9640625 5.18710937 5.428125 5.99921875 5.90625 6.8359375 C7 9 7 9 7 11 C7.66 11 8.32 11 9 11 C10.48845002 14.05807192 11.96408052 17.12216144 13.4375 20.1875 C13.85837891 21.05181641 14.27925781 21.91613281 14.71289062 22.80664062 C15.11572266 23.64775391 15.51855469 24.48886719 15.93359375 25.35546875 C16.30540771 26.12528076 16.67722168 26.89509277 17.06030273 27.68823242 C18.92180424 32.26774859 19.13646186 36.594322 19.125 41.5 C19.12886719 43.15515625 19.12886719 43.15515625 19.1328125 44.84375 C19.01325821 47.68492244 18.64925815 50.23807642 18 53 C17.34 53 16.68 53 16 53 C15.92652344 53.90492188 15.92652344 53.90492188 15.8515625 54.828125 C15.77679687 55.62734375 15.70203125 56.4265625 15.625 57.25 C15.52058594 58.43335938 15.52058594 58.43335938 15.4140625 59.640625 C14.98492887 62.085877 14.21399362 63.84836903 13 66 C12.34 66 11.68 66 11 66 C10.505 67.98 10.505 67.98 10 70 C9.34 70 8.68 70 8 70 C7.6918335 71.04486572 7.6918335 71.04486572 7.37744141 72.11083984 C5.58314876 75.87433846 2.93040718 78.38520202 -0.0390625 81.2265625 C-0.63874847 81.81488861 -1.23843445 82.40321472 -1.85629272 83.0093689 C-4.40743878 85.51186574 -6.97568914 87.99651204 -9.54345703 90.48193359 C-23.67698578 104.20094671 -33.63105026 115.83275684 -36 136 C-40.57715783 134.51946148 -42.29400689 130.80756478 -44.5625 126.875 C-45.14161133 125.9159375 -45.14161133 125.9159375 -45.73242188 124.9375 C-52.16369145 114.02515844 -55.16850392 101.22533001 -52.4921875 88.60546875 C-52.32976562 88.07566406 -52.16734375 87.54585938 -52 87 C-51.34 87 -50.68 87 -50 87 C-49.979375 85.906875 -49.95875 84.81375 -49.9375 83.6875 C-48.42505694 72.36407761 -38.24888636 63.17240043 -30 56 C-29.34 56 -28.68 56 -28 56 C-27.731875 55.360625 -27.46375 54.72125 -27.1875 54.0625 C-26 52 -26 52 -23 51 C-22.67 50.01 -22.34 49.02 -22 48 C-21.34 48 -20.68 48 -20 48 C-19.73703125 47.4328125 -19.4740625 46.865625 -19.203125 46.28125 C-17.90978636 43.82894556 -16.39876646 41.72806278 -14.75 39.5 C-10.82020723 33.9801653 -7.87195229 28.12262357 -5 22 C-4.34 22 -3.68 22 -3 22 C-2.814375 20.453125 -2.814375 20.453125 -2.625 18.875 C-1.83985476 12.57108024 -0.90948576 6.28693067 0 0 Z " fill="#493B30" transform="translate(557,405)"/>
<path d="M0 0 C3.53586014 3.17320782 5.58578031 5.16743695 6 10 C6.66 10 7.32 10 8 10 C9.34394372 13.32916008 10.67485873 16.66331336 12 20 C12.29648437 20.73734375 12.59296875 21.4746875 12.8984375 22.234375 C15.52930387 28.95480593 16.19388347 35.13827305 16.1875 42.3125 C16.18814453 43.06072021 16.18878906 43.80894043 16.18945312 44.57983398 C16.13791671 49.97300301 15.51266676 54.80020801 14 60 C13.34 60 12.68 60 12 60 C11.9175 60.680625 11.835 61.36125 11.75 62.0625 C10.04729325 68.73143476 5.88666975 73.62255036 1.25 78.5 C0.72140381 79.06460938 0.19280762 79.62921875 -0.35180664 80.2109375 C-3.83764646 83.89240848 -7.45477449 87.33141001 -11.3359375 90.59765625 C-15.87824823 94.425566 -19.65828964 98.87834744 -23.44921875 103.42578125 C-23.96097656 103.94527344 -24.47273437 104.46476563 -25 105 C-25.66 105 -26.32 105 -27 105 C-27.25910156 105.55042969 -27.51820313 106.10085938 -27.78515625 106.66796875 C-29.17645425 109.33872407 -30.78279447 111.7966359 -32.4375 114.3125 C-36.94236041 121.36886849 -39.41516582 127.77750737 -41 136 C-48.55977202 128.91373422 -54.54370005 118.39956134 -55.11010742 107.97314453 C-55.69088535 86.0898243 -55.69088535 86.0898243 -48.49609375 76.1171875 C-46.81958972 73.84719656 -46.81958972 73.84719656 -45.1875 70.5 C-42.47332466 65.59138502 -38.24012294 61.60983439 -34 58 C-33.34 58 -32.68 58 -32 58 C-32 57.34 -32 56.68 -32 56 C-30.63671875 54.73046875 -30.63671875 54.73046875 -28.6875 53.1875 C-14.49626824 40.98052897 -2.45790623 22.77105479 -0.25 3.8125 C-0.1675 2.554375 -0.085 1.29625 0 0 Z " fill="#46382F" transform="translate(583,444)"/>
<path d="M0 0 C4.32803581 3.80342541 7.15075409 8.13023089 10.15625 13.02734375 C11.38329957 15.00570121 12.6546375 16.95727746 13.96875 18.87890625 C17.70567978 24.38475156 19.87342196 28.29136407 20 35 C20.66 35 21.32 35 22 35 C22.62418196 43.84951317 22.21151585 50.60163554 17 58 C14.375 60.625 14.375 60.625 12 62 C11.01 62 10.02 62 9 62 C9 62.66 9 63.32 9 64 C5.82454097 65.05848634 3.45991204 65.16670878 0.125 65.1875 C-0.90367187 65.20167969 -1.93234375 65.21585938 -2.9921875 65.23046875 C-8.98942192 64.7709404 -12.06724938 62.43694941 -16 58 C-21.24165541 50.71992305 -21.8459554 44.64679245 -20.7265625 35.8515625 C-18.73186973 26.63081292 -13.33643223 18.61245272 -8 11 C-7.37222656 10.0925 -6.74445312 9.185 -6.09765625 8.25 C-1.20232558 1.20232558 -1.20232558 1.20232558 0 0 Z " fill="#D7D1C9" transform="translate(545,647)"/>
<path d="M0 0 C3.39793535 3.21426317 5.10361228 5.81758517 5.81640625 10.4921875 C5.9941381 21.32198164 5.9941381 21.32198164 2.6875 25.375 C-3.12515195 30.70326429 -8.06333111 31.52630951 -15.78515625 31.5859375 C-20.85051088 30.89055907 -24.47459911 28.06513901 -27.6875 24.1875 C-30.41424767 18.18865512 -30.53715422 12.20438693 -28.5625 6 C-26.78639256 1.74404444 -24.522447 -0.28143498 -20.6875 -2.8125 C-13.54950177 -5.19183274 -6.18844889 -4.17360507 0 0 Z " fill="#5E4C3E" transform="translate(887.6875,782.8125)"/>
<path d="M0 0 C0.33 0.66 0.66 1.32 1 2 C-6.90322581 13.51612903 -6.90322581 13.51612903 -13 16 C-11.43636055 12.34584258 -9.17824958 9.7880312 -6.5 6.875 C-5.7059375 6.00617188 -4.911875 5.13734375 -4.09375 4.2421875 C-2.75256247 2.80591578 -1.38954317 1.38954317 0 0 Z " fill="#B9B1A9" transform="translate(543,499)"/>
<path d="M0 0 C0.33 0.99 0.66 1.98 1 3 C1.99 2.67 2.98 2.34 4 2 C4.33 2.99 4.66 3.98 5 5 C3.0625 8.1875 3.0625 8.1875 1 11 C0.34 9.68 -0.32 8.36 -1 7 C-1.66 7 -2.32 7 -3 7 C-3 7.66 -3 8.32 -3 9 C-3.66 9 -4.32 9 -5 9 C-4.34 7.35 -3.68 5.7 -3 4 C-2.34 4 -1.68 4 -1 4 C-0.67 2.68 -0.34 1.36 0 0 Z " fill="#C5BDB4" transform="translate(568,471)"/>
<path d="M0 0 C0.66 0 1.32 0 2 0 C2.83848804 1.45537568 3.67063934 2.91440373 4.5 4.375 C5.19609375 5.59316406 5.19609375 5.59316406 5.90625 6.8359375 C7 9 7 9 7 11 C7.66 11 8.32 11 9 11 C9.33 12.65 9.66 14.3 10 16 C9.34 15.67 8.68 15.34 8 15 C8 14.34 8 13.68 8 13 C7.34 13 6.68 13 6 13 C5.731875 12.030625 5.46375 11.06125 5.1875 10.0625 C4.795625 9.051875 4.40375 8.04125 4 7 C3.01 6.67 2.02 6.34 1 6 C0.67 8.31 0.34 10.62 0 13 C-0.96661363 9.87819599 -0.98988909 7.47916205 -0.5625 4.25 C-0.46066406 3.45078125 -0.35882812 2.6515625 -0.25390625 1.828125 C-0.17011719 1.22484375 -0.08632813 0.6215625 0 0 Z " fill="#72675C" transform="translate(557,405)"/>
<path d="M0 0 C0.33 0.99 0.66 1.98 1 3 C0.01 3.66 -0.98 4.32 -2 5 C-2.6496875 6.175625 -2.6496875 6.175625 -3.3125 7.375 C-5.38251841 10.59502864 -7.74814516 12.0488871 -11 14 C-10.75 12.125 -10.75 12.125 -10 10 C-8.67532254 9.3162955 -7.34136367 8.65035814 -6 8 C-5.31731862 6.67479497 -4.6492959 5.34187818 -4 4 C-3.01 3.67 -2.02 3.34 -1 3 C-0.67 2.01 -0.34 1.02 0 0 Z " fill="#62554C" transform="translate(535,453)"/>
<path d="M0 0 C1 2 1 2 0.3125 4.875 C-1.04766767 8.11349446 -2.29269734 9.80031659 -5 12 C-5.66 12 -6.32 12 -7 12 C-5.44298069 7.32894208 -2.91552627 3.91294315 0 0 Z " fill="#6E6156" transform="translate(710,358)"/>
<path d="M0 0 C0.66 0.99 1.32 1.98 2 3 C1.34 3.66 0.68 4.32 0 5 C-1.55765559 7.34494891 -3.06038437 9.72070923 -4.5625 12.1015625 C-5.036875 12.72804688 -5.51125 13.35453125 -6 14 C-6.66 14 -7.32 14 -8 14 C-6.6744419 10.37723685 -5.05653045 7.36494652 -2.875 4.1875 C-2.33617187 3.39730469 -1.79734375 2.60710937 -1.2421875 1.79296875 C-0.83226562 1.20128906 -0.42234375 0.60960937 0 0 Z " fill="#73655B" transform="translate(748,300)"/>
<path d="M0 0 C0.33 0.66 0.66 1.32 1 2 C0.01840388 3.76687302 -0.97062163 5.53091188 -2.02734375 7.25390625 C-3.12896117 9.01535941 -3.12896117 9.01535941 -3.4375 11.3125 C-3.623125 11.869375 -3.80875 12.42625 -4 13 C-6.5625 14.25 -6.5625 14.25 -9 15 C-7.38325319 11.57053707 -5.42402323 8.43736948 -3.375 5.25 C-2.74335937 4.26515625 -2.11171875 3.2803125 -1.4609375 2.265625 C-0.97882812 1.51796875 -0.49671875 0.7703125 0 0 Z " fill="#BAB0A7" transform="translate(671,454)"/>
<path d="M0 0 C1.09375 3.7265625 1.09375 3.7265625 0.25 6.1875 C-1 8 -1 8 -4 9 C-4.33 9.99 -4.66 10.98 -5 12 C-5.66 12 -6.32 12 -7 12 C-5.44298069 7.32894208 -2.91552627 3.91294315 0 0 Z " fill="#706257" transform="translate(647,453)"/>
<path d="M0 0 C0.66 0.99 1.32 1.98 2 3 C0.8553125 4.0828125 0.8553125 4.0828125 -0.3125 5.1875 C-2.7243116 7.71148888 -4.23411609 10.03010433 -6 13 C-6.99 13.66 -7.98 14.32 -9 15 C-7.38325319 11.57053707 -5.42402323 8.43736948 -3.375 5.25 C-2.74335937 4.26515625 -2.11171875 3.2803125 -1.4609375 2.265625 C-0.97882812 1.51796875 -0.49671875 0.7703125 0 0 Z " fill="#73675C" transform="translate(684,397)"/>
<path d="M0 0 C0.33 0.66 0.66 1.32 1 2 C0 5 0 5 -2 6 C-2.0825 6.5775 -2.165 7.155 -2.25 7.75 C-3.43478061 11.30434184 -6.06164613 12.74934597 -9 15 C-7.47165554 11.83256147 -5.74923498 8.82612306 -3.9375 5.8125 C-3.41027344 4.93207031 -2.88304687 4.05164063 -2.33984375 3.14453125 C-1 1 -1 1 0 0 Z " fill="#B8AFA5" transform="translate(743,345)"/>
<path d="M0 0 C1 2 1 2 0.3125 4.375 C-1.0988802 7.19776041 -2.74906176 8.82167267 -5 11 C-5.33 11.99 -5.66 12.98 -6 14 C-6.66 14 -7.32 14 -8 14 C-6.6744419 10.37723685 -5.05653045 7.36494652 -2.875 4.1875 C-2.33617187 3.39730469 -1.79734375 2.60710938 -1.2421875 1.79296875 C-0.83226562 1.20128906 -0.42234375 0.60960937 0 0 Z " fill="#B7AEA4" transform="translate(571,606)"/>
<path d="M0 0 C0.66 1.32 1.32 2.64 2 4 C1.01 4.495 1.01 4.495 0 5 C-1.04808041 6.97522846 -2.0520411 8.97481509 -3 11 C-3.66 11 -4.32 11 -5 11 C-4.46884894 6.48521602 -2.63379708 3.65333143 0 0 Z " fill="#61564C" transform="translate(603,519)"/>
<path d="M0 0 C2.60608273 2.5162178 4.89381685 5.05134359 7 8 C6.67 8.66 6.34 9.32 6 10 C3.69 8.35 1.38 6.7 -1 5 C-0.67 3.35 -0.34 1.7 0 0 Z " fill="#685B50" transform="translate(445,457)"/>
<path d="M0 0 C1 3 1 3 0.125 5.0625 C-0.24625 5.701875 -0.6175 6.34125 -1 7 C-1.33 7.66 -1.66 8.32 -2 9 C-3.64142963 10.0409066 -5.30712215 11.04504326 -7 12 C-5.44298069 7.32894208 -2.91552627 3.91294315 0 0 Z " fill="#BAB1A9" transform="translate(585,585)"/>
<path d="M0 0 C0.66 0.99 1.32 1.98 2 3 C1.030625 3.598125 0.06125 4.19625 -0.9375 4.8125 C-4.23052042 6.71127509 -4.23052042 6.71127509 -5 10 C-5.66 10 -6.32 10 -7 10 C-5.6062718 5.56541027 -3.39417765 3.12621626 0 0 Z " fill="#B2A9A0" transform="translate(558,548)"/>
<path d="M0 0 C0 0.99 0 1.98 0 3 C-3.63 3 -7.26 3 -11 3 C-7.88866897 -0.11133103 -4.26881718 0 0 0 Z " fill="#65584D" transform="translate(566,728)"/>
<path d="M0 0 C0 3 0 3 -2.375 5.5 C-3.24125 6.325 -4.1075 7.15 -5 8 C-5.99 9.485 -5.99 9.485 -7 11 C-7.66 10.67 -8.32 10.34 -9 10 C-7.8758824 8.70756532 -6.75067408 7.41607925 -5.625 6.125 C-4.99851562 5.40570313 -4.37203125 4.68640625 -3.7265625 3.9453125 C-2.52573166 2.5923402 -1.2791655 1.2791655 0 0 Z " fill="#776C63" transform="translate(547,504)"/>
<path d="M0 0 C0 3.34238213 -0.48151073 5.03533048 -2 8 C-4.625 10.3125 -4.625 10.3125 -7 12 C-5.61735163 9.13132769 -4.07851447 6.43975968 -2.375 3.75 C-1.92898438 3.04359375 -1.48296875 2.3371875 -1.0234375 1.609375 C-0.68570313 1.07828125 -0.34796875 0.5471875 0 0 Z " fill="#B8AEA5" transform="translate(635,509)"/>
<path d="M0 0 C0.33 0 0.66 0 1 0 C1.38063221 2.3260857 1.71269945 4.66055264 2 7 C1.67 7.33 1.34 7.66 1 8 C0.76807135 9.51469448 0.58784762 11.03754562 0.4375 12.5625 C0.35371094 13.38878906 0.26992188 14.21507812 0.18359375 15.06640625 C0.12300781 15.70449219 0.06242187 16.34257812 0 17 C-0.33 17 -0.66 17 -1 17 C-1.02709444 14.91673869 -1.04643873 12.83337559 -1.0625 10.75 C-1.07410156 9.58984375 -1.08570313 8.4296875 -1.09765625 7.234375 C-1.01782092 4.59022872 -0.78643778 2.50173909 0 0 Z " fill="#63584F" transform="translate(505,492)"/>
<path d="M0 0 C0.66 1.32 1.32 2.64 2 4 C0.71034824 5.37562854 -0.62689293 6.70766393 -2 8 C-2.66 8 -3.32 8 -4 8 C-2.87548273 5.0280615 -1.77706209 2.66559313 0 0 Z " fill="#C1BAAF" transform="translate(748,337)"/>
<path d="M0 0 C0.33 0.66 0.66 1.32 1 2 C-1.65654657 5.73884332 -3.58110387 7.64978174 -8 9 C-7.04270084 7.87411986 -6.08412105 6.7493285 -5.125 5.625 C-4.59132813 4.99851562 -4.05765625 4.37203125 -3.5078125 3.7265625 C-2.38567993 2.44163349 -1.20628025 1.20628025 0 0 Z " fill="#ADA49C" transform="translate(543,499)"/>
<path d="M0 0 C0.66 0.33 1.32 0.66 2 1 C1.3125 3.4375 1.3125 3.4375 0 6 C-2.625 6.8125 -2.625 6.8125 -5 7 C-3.88820837 3.66462511 -2.52588702 2.36292656 0 0 Z " fill="#675B50" transform="translate(760,285)"/>
<path d="M0 0 C0.66 0 1.32 0 2 0 C1.67 1.65 1.34 3.3 1 5 C0.01 4.67 -0.98 4.34 -2 4 C-2.12375 4.639375 -2.2475 5.27875 -2.375 5.9375 C-2.58125 6.618125 -2.7875 7.29875 -3 8 C-3.99 8.495 -3.99 8.495 -5 9 C-4.34 7.02 -3.68 5.04 -3 3 C-2.34 3 -1.68 3 -1 3 C-0.67 2.01 -0.34 1.02 0 0 Z " fill="#6A6056" transform="translate(594,533)"/>
<path d="M0 0 C0.8125 1.6875 0.8125 1.6875 1 4 C-1.4375 6.75 -1.4375 6.75 -4 9 C-3.46930939 5.17902761 -2.50298434 2.93828597 0 0 Z " fill="#6C6055" transform="translate(635,471)"/>
<path d="M0 0 C1.875 0.1875 1.875 0.1875 4 1 C5.25 3.5625 5.25 3.5625 6 6 C3.5625 5.25 3.5625 5.25 1 4 C0.1875 1.875 0.1875 1.875 0 0 Z " fill="#685B4F" transform="translate(886,784)"/>
<path d="M0 0 C1.33332095 2.6666419 0.67102033 4.16680303 0 7 C-0.66 7 -1.32 7 -2 7 C-2.33 7.99 -2.66 8.98 -3 10 C-3.33 9.34 -3.66 8.68 -4 8 C-3.22265625 6.0546875 -3.22265625 6.0546875 -2.0625 3.875 C-1.49208984 2.78832031 -1.49208984 2.78832031 -0.91015625 1.6796875 C-0.60980469 1.12539063 -0.30945313 0.57109375 0 0 Z " fill="#6C6054" transform="translate(511,658)"/>
<path d="M0 0 C0.66 1.32 1.32 2.64 2 4 C-0.31 5.65 -2.62 7.3 -5 9 C-3.7508258 5.54074837 -2.32472205 2.85306797 0 0 Z " fill="#BEB6AC" transform="translate(612,544)"/>
<path d="M0 0 C0.66 0 1.32 0 2 0 C2 2.31 2 4.62 2 7 C0.68 7.33 -0.64 7.66 -2 8 C-1.33333333 5.33333333 -0.66666667 2.66666667 0 0 Z " fill="#A69E95" transform="translate(595,504)"/>
<path d="M0 0 C1 2 1 2 0.3125 4.5 C-1.15567038 7.29651501 -2.09303901 7.93411431 -5 9 C-3.7508258 5.54074837 -2.32472205 2.85306797 0 0 Z " fill="#807267" transform="translate(668,421)"/>
<path d="M0 0 C0.66 0.99 1.32 1.98 2 3 C1.34 3 0.68 3 0 3 C0.33 3.99 0.66 4.98 1 6 C-0.65 6.66 -2.3 7.32 -4 8 C-2.68 5.36 -1.36 2.72 0 0 Z " fill="#6D6155" transform="translate(689,389)"/>
<path d="M0 0 C0.33 0.99 0.66 1.98 1 3 C-1.97 5.475 -1.97 5.475 -5 8 C-5 5 -5 5 -2.5 2.3125 C-1.675 1.549375 -0.85 0.78625 0 0 Z " fill="#524337" transform="translate(866,782)"/>
<path d="M0 0 C0 0.99 0 1.98 0 3 C-3 5.1875 -3 5.1875 -6 7 C-6 6.01 -6 5.02 -6 4 C-3 1.8125 -3 1.8125 0 0 Z " fill="#645448" transform="translate(668,426)"/>
<path d="M0 0 C0.33 1.32 0.66 2.64 1 4 C-1.97 6.475 -1.97 6.475 -5 9 C-3.50163895 5.88801935 -1.80066242 2.9465385 0 0 Z " fill="#B3A99F" transform="translate(731,363)"/>
</svg>
